<svg width="512" height="512" xmlns="http://www.w3.org/2000/svg" clip-rule="evenodd">

 <g>
  <title>background</title>
  <rect fill="none" id="canvas_background" height="402" width="582" y="-1" x="-1"/>
 </g>
 <g>
  <title>Layer 1</title>
  <path fill-rule="nonzero" fill="#27eb11" stroke="black"        id="path2218" d="m72.310059,97.579902c0,11.662 -9.488,21.15 -21.15,21.15c-11.668,0 -21.16,-9.488 -21.16,-21.15l0,-35.67c0,-11.668 9.492,-21.16 21.16,-21.16c11.662,0 21.15,9.492 21.15,21.16l0,35.67zm-21.15,-86.83c-28.21,0 -51.16,22.95 -51.16,51.16l0,35.67c0,28.204 22.95,51.15 51.16,51.15c28.204,0 51.15,-22.946 51.15,-51.15l0,-35.67c0,-28.21 -22.946,-51.16 -51.15,-51.16"/>
  <path fill-rule="nonzero" fill="gray"    stroke="antiquewhite" id="path2222" d="m277.159912,97.579902c0,11.662 -9.492,21.15 -21.16,21.15c-11.662,0 -21.15,-9.488 -21.15,-21.15l0,-35.67c0,-11.668 9.488,-21.16 21.15,-21.16c11.668,0 21.16,9.492 21.16,21.16l0,35.67zm-21.16,-86.83c-28.204,0 -51.15,22.95 -51.15,51.16l0,35.67c0,28.204 22.946,51.15 51.15,51.15c28.21,0 51.16,-22.946 51.16,-51.15l0,-35.67c0,-28.21 -22.95,-51.16 -51.16,-51.16"/>
  <path fill-rule="nonzero" fill="#27eb11" stroke="black"        id="path2226" d="m482,97.579902c0,11.662 -9.488,21.15 -21.15,21.15c-11.668,0 -21.161,-9.488 -21.161,-21.15l0,-35.67c0,-11.668 9.493,-21.16 21.161,-21.16c11.662,0 21.15,9.492 21.15,21.16l0,35.67zm-21.15,-86.83c-28.21,0 -51.161,22.95 -51.161,51.16l0,35.67c0,28.204 22.951,51.15 51.161,51.15c28.204,0 51.15,-22.946 51.15,-51.15l0,-35.67c0,-28.21 -22.946,-51.16 -51.15,-51.16"/>
  <path fill-rule="nonzero" fill="#27eb11" stroke="black"        id="path2230" d="m153.580078,139.05c8.284,0 15,-6.716 15,-15l0,-98.3c0,-8.284 -6.716,-15 -15,-15c-8.284,0 -15,6.716 -15,15l0,98.3c0,8.284 6.716,15 15,15"/>
  <path fill-rule="nonzero" fill="gray"    stroke="antiquewhite" id="path2234" d="m358.419922,139.05c8.284,0 15,-6.716 15,-15l0,-98.3c0,-8.284 -6.716,-15 -15,-15c-8.284,0 -15,6.716 -15,15l0,98.3c0,8.284 6.716,15 15,15"/>
  <path fill-rule="nonzero" fill="gray"    stroke="antiquewhite" id="path2238" d="m72.310059,450.110176c0,11.662 -9.488,21.15 -21.15,21.15c-11.668,0 -21.16,-9.488 -21.16,-21.15l0,-35.68c0,-11.662 9.492,-21.15 21.16,-21.15c11.662,0 21.15,9.488 21.15,21.15l0,35.68zm-21.15,-86.83c-28.21,0 -51.16,22.946 -51.16,51.15l0,35.68c0,28.204 22.95,51.15 51.16,51.15c28.204,0 51.15,-22.946 51.15,-51.15l0,-35.68c0,-28.204 -22.946,-51.15 -51.15,-51.15"/>
  <path fill-rule="nonzero" fill="gray"    stroke="antiquewhite" id="path2242" d="m277.159912,450.110176c0,11.662 -9.492,21.15 -21.16,21.15c-11.662,0 -21.15,-9.488 -21.15,-21.15l0,-35.68c0,-11.662 9.488,-21.15 21.15,-21.15c11.668,0 21.16,9.488 21.16,21.15l0,35.68zm-21.16,-86.83c-28.204,0 -51.15,22.946 -51.15,51.15l0,35.68c0,28.204 22.946,51.15 51.15,51.15c28.21,0 51.16,-22.946 51.16,-51.15l0,-35.68c0,-28.204 -22.95,-51.15 -51.16,-51.15"/>
  <path fill-rule="nonzero" fill="#27eb11" stroke="black"        id="path2246" d="m482,450.110176c0,11.662 -9.488,21.15 -21.15,21.15c-11.668,0 -21.161,-9.488 -21.161,-21.15l0,-35.68c0,-11.662 9.493,-21.15 21.161,-21.15c11.662,0 21.15,9.488 21.15,21.15l0,35.68zm-21.15,-86.83c-28.21,0 -51.161,22.946 -51.161,51.15l0,35.68c0,28.204 22.951,51.15 51.161,51.15c28.204,0 51.15,-22.946 51.15,-51.15l0,-35.68c0,-28.204 -22.946,-51.15 -51.15,-51.15"/>
  <path fill-rule="nonzero" fill="#27eb11" stroke="black"        id="path2250" d="m153.580078,363.280078c-8.284,0 -15,6.716 -15,15l0,98.3c0,8.284 6.716,15 15,15c8.284,0 15,-6.716 15,-15l0,-98.3c0,-8.284 -6.716,-15 -15,-15"/>
  <path fill-rule="nonzero" fill="gray"    stroke="antiquewhite" id="path2254" d="m358.419922,363.280078c-8.284,0 -15,6.716 -15,15l0,98.3c0,8.284 6.716,15 15,15c8.284,0 15,-6.716 15,-15l0,-98.3c0,-8.284 -6.716,-15 -15,-15"/>
  <path fill-rule="nonzero" fill="gray"    stroke="antiquewhite" id="path2258" d="m174.72998,273.840176c0,11.668 -9.488,21.16 -21.15,21.16c-11.668,0 -21.16,-9.492 -21.16,-21.16l0,-35.67c0,-11.662 9.492,-21.15 21.16,-21.15c11.662,0 21.15,9.488 21.15,21.15l0,35.67zm-21.15,-86.82c-28.21,0 -51.16,22.946 -51.16,51.15l0,35.67c0,28.21 22.95,51.16 51.16,51.16c28.204,0 51.15,-22.95 51.15,-51.16l0,-35.67c0,-28.204 -22.946,-51.15 -51.15,-51.15"/>
  <path fill-rule="nonzero" fill="#27eb11" stroke="black"        id="path2262" d="m379.580078,273.840176c0,11.668 -9.492,21.16 -21.16,21.16c-11.662,0 -21.151,-9.492 -21.151,-21.16l0,-35.67c0,-11.662 9.489,-21.15 21.151,-21.15c11.668,0 21.16,9.488 21.16,21.15l0,35.67zm-21.16,-86.82c-28.204,0 -51.151,22.946 -51.151,51.15l0,35.67c0,28.21 22.947,51.16 51.151,51.16c28.21,0 51.16,-22.95 51.16,-51.16l0,-35.67c0,-28.204 -22.95,-51.15 -51.16,-51.15"/>
  <path fill-rule="nonzero" fill="gray"    stroke="antiquewhite" id="path2266" d="m66.159912,300.32002l0,-98.3c0,-8.284 -6.716,-15 -15,-15c-8.284,0 -15,6.716 -15,15l0,98.3c0,8.284 6.716,15 15,15c8.284,0 15,-6.716 15,-15"/>
  <path fill-rule="nonzero" fill="gray"    stroke="antiquewhite" id="path2270" d="m474.570068,300.32002l0,-98.3c0,-8.284 -6.716,-15 -15,-15c-8.284,0 -15,6.716 -15,15l0,98.3c0,8.284 6.716,15 15,15c8.284,0 15,-6.716 15,-15"/>
  <path fill-rule="nonzero" fill="#27eb11" stroke="black"        id="path2274" d="m271,300.32002l0,-98.3c0,-8.284 -6.716,-15 -15,-15c-8.284,0 -15,6.716 -15,15l0,98.3c0,8.284 6.716,15 15,15c8.284,0 15,-6.716 15,-15"/>
 </g>
</svg>
